<?xml version="1.0" encoding="utf-8"?>
<!-- Generator: Adobe Illustrator 27.3.1, SVG Export Plug-In . SVG Version: 6.00 Build 0)  -->
<svg version="1.1" xmlns="http://www.w3.org/2000/svg" xmlns:xlink="http://www.w3.org/1999/xlink" x="0px" y="0px"
	 viewBox="0 0 1000 1000" style="enable-background:new 0 0 1000 1000;" xml:space="preserve">
<style type="text/css">
	.st0{fill:#808080;}
	.st1{fill:#333333;}
	.st2{fill:#4D4D4D;}
	.st3{fill:#666666;}
	.st4{fill:#3F3F3F;}
	.st5{display:none;stroke:#000000;stroke-miterlimit:10;}
	.st6{opacity:0.51;}
	.st7{fill:#1A1A1A;}
	.st8{fill:#B3B3B3;}
	.st9{fill:#999999;}
	.st10{fill:#3D3D3D;}
	.st11{fill:none;stroke:#4D4D4D;stroke-width:11;stroke-miterlimit:10;}
	.st12{fill:#424242;}
	.st13{fill:#353535;}
	.st14{fill:#515151;}
	.st15{fill:#303030;}
	.st16{display:none;}
	.st17{display:inline;}
	.st18{fill:#F2F2F2;}
	.st19{fill:none;}
	.st20{fill:#FFFFFF;}
	.st21{font-family:'OpenSansSemiCondensed-Bold';}
	.st22{font-size:34px;}
	.st23{letter-spacing:3;}
	.st24{font-size:63px;}
	.st25{letter-spacing:6;}
</style>
<g id="Elementos">
	<g id="Fundos">
		<g id="pokebola">
		</g>
		<path class="st0" d="M815.64,954H172.36c-30.02,0-54.36-24.34-54.36-54.36V98.36C118,68.34,142.34,44,172.36,44H870v855.64
			C870,929.66,845.66,954,815.64,954z"/>
		<path class="st2" d="M815.64,954H172.36c-30.02,0-54.36-24.34-54.36-54.36V507.36c0-30.02,24.34-54.36,54.36-54.36h643.28
			c30.02,0,54.36,24.34,54.36,54.36v392.28C870,929.66,845.66,954,815.64,954z"/>
		<g id="Camada_15">
			<path class="st5" d="M1168.15,464.95c-6.47,140.74-122.46,252.85-264.6,252.85s-258.13-112.11-264.6-252.85h183.59
				c5.96,39.43,39.96,69.65,81.01,69.65s75.04-30.22,81.01-69.65H1168.15z"/>
		</g>
	</g>
	<g id="podebola" class="st6">
		<path class="st5" d="M760,480.65C753.53,621.39,637.54,733.5,495.4,733.5S237.27,621.39,230.8,480.65h183.59
			c5.96,39.43,39.96,69.65,81.01,69.65s75.04-30.22,81.01-69.65H760z"/>
		<path d="M764.95,436.94h-183.8c-6.77-38.5-40.32-67.74-80.7-67.74s-73.94,29.24-80.7,67.74h-183.8
			C243.37,297.1,358.94,186,500.45,186S757.53,297.1,764.95,436.94z"/>
	</g>
	<g id="Bandeiras">
		<polygon class="st3" points="771,235 820.5,263 870,235 870,44 771,44 		"/>
		<polygon class="st2" points="771,181 820.5,209 870,181 870,44 771,44 		"/>
		<polygon class="st7" points="771,131 820.5,159 870,131 870,44 771,44 		"/>
	</g>
	<g id="Linhas">
		<path class="st3" d="M751.5,653h-516c-15.19,0-27.5-12.31-27.5-27.5l0,0c0-15.19,12.31-27.5,27.5-27.5h516
			c15.19,0,27.5,12.31,27.5,27.5l0,0C779,640.69,766.69,653,751.5,653z"/>
		<path class="st3" d="M751.5,771h-516c-15.19,0-27.5-12.31-27.5-27.5l0,0c0-15.19,12.31-27.5,27.5-27.5h516
			c15.19,0,27.5,12.31,27.5,27.5l0,0C779,758.69,766.69,771,751.5,771z"/>
		<path class="st3" d="M751.5,890h-516c-15.19,0-27.5-12.31-27.5-27.5l0,0c0-15.19,12.31-27.5,27.5-27.5h516
			c15.19,0,27.5,12.31,27.5,27.5l0,0C779,877.69,766.69,890,751.5,890z"/>
		<path class="st8" d="M748.5,642h-79c-9.11,0-16.5-7.39-16.5-16.5l0,0c0-9.11,7.39-16.5,16.5-16.5h79c9.11,0,16.5,7.39,16.5,16.5
			l0,0C765,634.61,757.61,642,748.5,642z"/>
		<path class="st8" d="M748.5,701h-177c-9.11,0-16.5-7.39-16.5-16.5l0,0c0-9.11,7.39-16.5,16.5-16.5h177c9.11,0,16.5,7.39,16.5,16.5
			l0,0C765,693.61,757.61,701,748.5,701z"/>
		<path class="st8" d="M748.5,760h-134c-9.11,0-16.5-7.39-16.5-16.5l0,0c0-9.11,7.39-16.5,16.5-16.5h134c9.11,0,16.5,7.39,16.5,16.5
			l0,0C765,752.61,757.61,760,748.5,760z"/>
		<path class="st8" d="M748.5,819h-50c-9.11,0-16.5-7.39-16.5-16.5l0,0c0-9.11,7.39-16.5,16.5-16.5h50c9.11,0,16.5,7.39,16.5,16.5
			l0,0C765,811.61,757.61,819,748.5,819z"/>
		<path class="st8" d="M748.5,878h-23c-9.11,0-16.5-7.39-16.5-16.5l0,0c0-9.11,7.39-16.5,16.5-16.5h23c9.11,0,16.5,7.39,16.5,16.5
			l0,0C765,870.61,757.61,878,748.5,878z"/>
	</g>
</g>
<g id="Paleta">
</g>
<g id="Pokedex">
	<g id="Camada_13">
	</g>
	<g id="Camada_12">
	</g>
</g>
<g id="Textos" class="st16">
	<g id="Numero" class="st17">
		<path class="st18" d="M185.22,125.65l-1.48,7.69h8v6.25h-9.12l-2.38,12.78h-7.57l2.45-12.78h-6.35l-2.34,12.78h-7.35l2.27-12.78
			H154v-6.25h8.54l1.48-7.69h-7.86v-6.38h9.01l2.38-12.57h7.46l-2.38,12.57h6.38l2.38-12.57h7.39l-2.42,12.57h7.46v6.38H185.22z
			 M170.01,133.34h6.35l1.48-7.69h-6.35L170.01,133.34z"/>
		<path class="st18" d="M229.87,129.52c0,3.56-0.28,6.79-0.85,9.67c-0.56,2.89-1.49,5.36-2.78,7.41c-1.29,2.05-2.99,3.63-5.1,4.74
			c-2.12,1.1-4.71,1.66-7.79,1.66c-3.7,0-6.77-0.87-9.21-2.61c-2.44-1.74-4.26-4.35-5.46-7.83c-1.2-3.48-1.8-7.82-1.8-13.03
			c0-5.15,0.56-9.47,1.69-12.96c1.13-3.49,2.9-6.13,5.32-7.91c2.42-1.78,5.57-2.67,9.46-2.67c3.73,0,6.81,0.9,9.25,2.7
			c2.44,1.8,4.26,4.45,5.46,7.96C229.27,120.15,229.87,124.44,229.87,129.52z M207.41,129.52c0,3.54,0.18,6.48,0.54,8.81
			c0.36,2.33,0.97,4.08,1.82,5.24c0.85,1.16,2.05,1.74,3.59,1.74c1.51,0,2.7-0.57,3.57-1.72c0.87-1.15,1.48-2.89,1.84-5.22
			c0.36-2.33,0.54-5.28,0.54-8.85c0-3.5-0.18-6.42-0.54-8.77c-0.36-2.34-0.97-4.1-1.84-5.28c-0.87-1.18-2.06-1.77-3.57-1.77
			c-1.51,0-2.7,0.58-3.57,1.75c-0.87,1.17-1.48,2.92-1.84,5.27C207.59,123.07,207.41,126,207.41,129.52z"/>
		<path class="st18" d="M266.9,152.37h-32.77v-6.47l11.68-11.91c2.4-2.5,4.3-4.58,5.68-6.24c1.38-1.66,2.36-3.14,2.92-4.45
			c0.56-1.31,0.85-2.69,0.85-4.13c0-1.71-0.51-3.03-1.53-3.95c-1.02-0.93-2.46-1.39-4.31-1.39c-1.71,0-3.35,0.36-4.92,1.08
			c-1.57,0.72-3.26,1.85-5.07,3.39l-5.44-5.94c1.49-1.31,3.02-2.45,4.58-3.41c1.56-0.96,3.3-1.69,5.21-2.19
			c1.91-0.5,4.12-0.75,6.62-0.75c3.12,0,5.84,0.53,8.15,1.58c2.31,1.05,4.09,2.51,5.35,4.36c1.26,1.85,1.89,3.98,1.89,6.38
			c0,2.27-0.43,4.39-1.28,6.35c-0.85,1.96-2.16,3.94-3.93,5.95c-1.77,2.01-4,4.26-6.69,6.74l-6.92,6.78v0.38h19.94V152.37z"/>
		<path class="st18" d="M289.34,123.15c2.88,0,5.43,0.56,7.64,1.69c2.21,1.13,3.95,2.74,5.21,4.85c1.26,2.11,1.89,4.62,1.89,7.53
			c0,3.27-0.71,6.09-2.13,8.46c-1.42,2.37-3.53,4.18-6.33,5.44c-2.8,1.26-6.3,1.89-10.51,1.89c-2.48,0-4.77-0.19-6.89-0.58
			c-2.12-0.39-4-0.96-5.66-1.74v-8.19c1.71,0.81,3.65,1.5,5.82,2.05c2.17,0.55,4.24,0.83,6.18,0.83s3.57-0.3,4.88-0.89
			c1.31-0.59,2.3-1.45,2.96-2.58c0.66-1.13,0.99-2.5,0.99-4.13c0-2.29-0.75-4.04-2.25-5.25c-1.5-1.21-3.78-1.81-6.83-1.81
			c-1.15,0-2.36,0.1-3.62,0.3c-1.26,0.2-2.4,0.44-3.41,0.73l-3.89-2.09l1.77-22.97h25.74v7.88h-16.69l-0.83,9.19
			c0.94-0.19,1.86-0.33,2.78-0.44C287.08,123.2,288.14,123.15,289.34,123.15z"/>
	</g>
	<g id="Camada_9" class="st17">
		<rect x="789.19" y="93.79" class="st19" width="53.11" height="71.49"/>
		<text transform="matrix(1 0 0 1 792.9795 119.627)"><tspan x="0" y="0" class="st20 st21 st22 st23">Nv</tspan><tspan x="13.92" y="36" class="st20 st21 st22 st23">1</tspan></text>
		<rect x="798.09" y="180.06" class="st19" width="34.72" height="32.43"/>
		<text transform="matrix(1 0 0 1 806.5981 205.9038)" class="st20 st21 st22 st23">2</text>
		<rect x="802.4" y="230.36" class="st19" width="26.04" height="33.96"/>
		<text transform="matrix(1 0 0 1 806.5771 256.2017)" class="st20 st21 st22 st23">3</text>
	</g>
	<g id="Camada_10" class="st17">
		<rect x="350.09" y="530.7" class="st19" width="274.72" height="73.53"/>
		<text transform="matrix(1 0 0 1 357.9258 578.582)" class="st21 st24 st25">Pikachu</text>
	</g>
</g>
</svg>
